<svg id="Layer_1" data-name="Layer 1" xmlns="http://www.w3.org/2000/svg" viewBox="0 0 1434.46 1830.65">
  <defs>
    <style>
      .cls-1, .cls-3, .cls-4, .cls-5 {
        fill: #1e407c;
      }

      .cls-1, .cls-8, .cls-9 {
        isolation: isolate;
      }

      .cls-1 {
        opacity: 0.45;
      }

      .cls-2 {
        opacity: 0.8;
      }

      .cls-3 {
        stroke: #1e407c;
      }

      .cls-3, .cls-4, .cls-5, .cls-6, .cls-7 {
        stroke-miterlimit: 10;
      }

      .cls-3, .cls-4, .cls-5, .cls-6 {
        stroke-width: 100px;
      }

      .cls-4 {
        stroke: #0f6ead;
      }

      .cls-5 {
        stroke: #009cde;
      }

      .cls-6 {
        fill: #5a7fb1;
        stroke: #4bade2;
      }

      .cls-7 {
        fill: #001e44;
        stroke: #001e44;
      }

      .cls-8 {
        font-size: 90px;
        fill: #fff;
        font-family: LoRes9OT-NarrowRegular, "LoRes 9 OT";
      }
    </style>
  </defs>
  <g id="Layer_3" data-name="Layer 3">
    <rect class="cls-1" x="138.46" y="37.34" width="1296" height="1727.11"/>
  </g>
  <g id="Layer_1-2" data-name="Layer 1">
    <g class="cls-2">
      <path class="cls-3" d="M1064.47,514.44C1058.74,494,1044.55,475.52,1031,458a434,434,0,0,0-41.89-47.46c-31.2-30.25-69.07-54.1-114.56-67.79-47.28-14.23-98.43-18.78-144.49-35.91C628.38,269,603.69,173.43,607,90c1-23.7,3.58-47.32,6.21-70.92.71-6.39-11.41-6.35-12.12,0-9.48,84.89-17.42,179.85,51.38,250.8,30.47,31.43,72.66,48.58,118.84,59.47,48.86,11.53,100.28,18,144.1,40.51,43.28,22.25,76.09,55.8,103.3,90.77,14.21,18.28,29.86,37.71,34.78,59.38,4.55,20-1.67,40.55-13.73,58-26.49,38.44-75.37,58.42-125,70.61-53.23,13-107.92,21.76-161.25,34.68q-82.5,20-162.57,46c-48.72,15.87-97.85,32.54-143.86,53.28-37.63,17-74.52,38.24-98.61,68-25.94,32.12-30.6,71.21-16.86,107.75,15.19,40.37,47.28,75.24,80.39,106.85,34.57,33,74,66.1,89.69,108.87,7.08,19.3,9.35,40.3,3.58,60-6.16,21.09-21.73,37.77-42.84,50.43-43.31,26-97.19,41.75-149.56,49.53-49.18,7.3-101.37,9.72-142.3,36-33.88,21.79-54.4,54.56-65,88.3-24.3,77.3-2.89,164.17,43.12,233.24a357.47,357.47,0,0,0,42.08,51.46c4.89,5,13.42-2.09,8.58-7C134.68,1670,99.6,1581.93,109.62,1497c4.32-36.7,18.46-75,48.37-103.2,34.46-32.51,83.39-40.31,132.89-46.58,53.39-6.77,104.32-18.78,151.72-40.53,20.44-9.38,40.49-20.4,54.89-35.84a86,86,0,0,0,22.67-50.69c8.88-87.77-92.84-144.67-144.9-210.61-28.4-36-49.42-79.3-34.25-122.38,12.77-36.29,48.07-63,85.56-82.88,43.15-22.83,91.4-39.45,138.62-55.58q78.52-26.85,159.81-47.8c53.25-13.73,107.25-24.5,161.37-35.59,48.34-9.91,98.63-23,135.3-52.09C1053.37,588,1074.74,551.12,1064.47,514.44Z" transform="translate(138.46 35.7)"/>
      <path class="cls-4" d="M648.4,1273.94c-7.38-11.44-16.36-26.52-26.06-43.79-6.27-11.15-12.71-22.83-19.25-34.93-17.07-31.65-34.86-64.45-51.85-96.54-17.88-33.74-30.85-67.07-37.32-100.83a454.8,454.8,0,0,1-6.81-51.6q-1.89-24.88-2.84-50.91c-1.28-34.8-2.32-70.78-1.13-106.93,1.55-47.23,5.81-88.18,5.91-123,.11-39.74-4.68-72.84-13.22-100.87a253.37,253.37,0,0,0-15.41-39.61A135,135,0,0,0,461.1,495.7c-.63-.71-1.27-1.41-1.91-2.09-7.87-8.41-16.12-13.78-23.41-24.11-5.15-7.29-8-17.14-7.63-29.82a96.81,96.81,0,0,1,2.21-17.87c4.4-19.78,14.84-41.83,26.37-64.7,5.8-11.52,12.07-23.3,17.83-35.69,2-4.29-2.24-5.6-1.37-3.46,10.06,24.7,11.06,56.89,41.72,73.5,16.25,8.81,38,9.15,58.19,6.51,21.39-2.87,41-7.67,59.33-8.44a179.79,179.79,0,0,1,20.37.29c24.05,1.7,46,7.68,63.85,17.55,31.63,17.51,51.36,46.37,54.29,82.86a116.71,116.71,0,0,1-5.05,45.13,134.47,134.47,0,0,1-4.85,13c-8.95,20.44-24,40.55-38.08,60.69s-26.82,40.63-33.06,61.13-6.38,40.23-4.2,58c1.89,15.47,7.08,30.07,18.87,40,10.31,8.67,25.78,11.56,42.83,10.36,33.8-2.38,76.83-19.09,110.7-9.52,9.38,2.66,17.58,6.74,25.31,11.09a241.28,241.28,0,0,1,23,14.2c6.59,4.75,11.88,10.49,12.34,17.24.32,4.63-1.48,9.18-4.58,13.31a51.92,51.92,0,0,1-8.9,9C890.42,846,868.43,854.38,859.36,869a22.55,22.55,0,0,0-3.51,13.42c.14,2.27,6.15,1.32,6.38-2.86.21-3.85-5.7-4.46-6-1.93-4.33,32.5-4.88,71.17,35.23,97.64,17.76,11.72,42,16.1,68.34,17.59,28,1.5,57.49.4,83.18,7.68,25.23,7.16,45.17,20.31,62.21,34,8.88,7.2,18.14,15.13,22.56,23.88a21.36,21.36,0,0,1-1.3,22.21c-9.92,14.88-31.27,20.5-53.63,21.64-23.7,1.2-49-.46-74.88,0q-16.47.29-33.52,1c-16.32.71-33.06,1.85-50.06,3.57-26.32,2.67-53.85,6-80.3,11.85-21.47,4.78-43,11.94-57.93,23.76C760,1155.22,755,1172,758.82,1187.26c2.19,8.75,6.65,16.79,12.39,24.23a163.75,163.75,0,0,0,17.22,18.59c13.53,12.84,29.28,25.82,33.16,43.76a36.33,36.33,0,0,1-3.47,25.73c-5,9-14.8,16-27.46,20.71-26.3,9.87-58.31,14.41-89.78,15.54-22.29.85-45.6.42-66.81,5.14a100.88,100.88,0,0,0-19.41,6.28,97.37,97.37,0,0,0-44.36,40.39c-21.06,36.11-19,77.86-5.09,111a121,121,0,0,0,13.72,24.64c1.78,2.44,5.47-1.24,2.4-3.79-20.25-16.76-37.4-35.65-50-55.9-13.41-21.63-21.62-44.65-24.05-67.21-2-18.85.77-38.41,11.34-53.16,12.08-16.85,31.16-21.6,50.69-25.63,20.9-4.37,40.59-11.58,58.67-23.81C635.85,1288.46,643.54,1282.34,648.4,1273.94Z" transform="translate(138.46 35.7)"/>
      <path class="cls-5" d="M1242.63,1505.91c-3.3-39.75-38.55-71.38-67.53-100.87-30.56-31.1-64.68-60.59-109-78-41.25-16.22-86.63-22.6-131.49-27.88-45.43-5.34-91.71-9.44-135.25-22.06-46.61-13.51-84.21-38.4-111.17-72.56-27.94-35.4-45.89-76.57-59.29-117.14C614,1042.27,611,997.27,620.5,951.15c9.2-44.69,26.13-88,37.48-132.26,11-42.77,14.84-85.75,7.34-129.17-27.54-159.4-176-295.92-347.89-363.47a733.6,733.6,0,0,0-131.53-38c-47.12-8.94-96.41-12-141.73-26.68-44-14.31-77-41.57-93.73-78.11-15.55-34-18.37-71-17.44-107,.46-18,2-35.9,3.88-53.8.69-6.43-11.44-6.39-12.12,0C-82.39,90.1-87.6,170.6-33.77,227-5,257.25,37.44,272.75,81.73,281.47c47,9.25,94.87,13.68,141.24,25.24C407.86,352.78,571.9,472.43,634.15,625.39c17.16,42.18,25.87,86.75,22.54,131.27-3.35,44.86-18.58,88.32-31.87,131.66-13.17,42.95-25,87-22.15,131.58s18.83,88.49,38.63,129.76c17.29,36.06,40,71.5,74.75,98.22,33.08,25.45,75,39.67,118.58,47.88,88.81,16.74,188.59,12.06,264.62,59.65,20.93,13.1,39.12,29,56.06,45.53,17.16,16.71,34.23,33.92,49.33,51.94,13.77,16.44,24.85,34.63,26,54.93.79,13.93-2.81,27.62-9,40.52-26.76,55.76-89.36,94.28-114,151.14a99.58,99.58,0,0,0-8.54,40.64c.06,6.45,12.19,6.46,12.12,0-.58-61.92,64.61-108.2,101.83-156.8C1230.7,1560.24,1244.94,1533.83,1242.63,1505.91Z" transform="translate(138.46 35.7)"/>
      <path class="cls-6" d="M-62.26,438.65c-22.22,52.17-34.11,114-20.28,164.13a160.19,160.19,0,0,0,27.67,56c3.34,4.32,13.7,6.81,19.81,4.7,30.51-10.52,62.18-24,94.21-32.93,14.47-4,29-7.54,43.54-10.34,48.09-9.27,96.24-14.35,141.28-9.67C286.45,615,335.16,617,374.41,663.6a140.82,140.82,0,0,1,24,41.63c13.43,35.76,13.45,75.76,8.5,113-.73,5.43-1.56,10.79-2.43,16-5.35,32.49-14.39,64.52-22.68,96.52C374,961.08,366.72,992,367.86,1023a152.63,152.63,0,0,0,2.21,21.11c6.52,37.13,27,71.08,54.48,95.21,2.67,2.35,5.34,4.71,8.16,6.9,21.72,16.9,45.44,28.69,72.24,33.77,18.2,3.45,37.27,3.14,55.69.68a283.3,283.3,0,0,0,37.25-7.92c34.56-9.49,69-23.7,106.17-32.21,31.18-7.12,63.45-10.7,94.3-6.76,18,2.29,35,6.74,51.62,12.1,1.3.42,2.59.85,3.89,1.29,15.1,5.16,30.68,10.66,45.47,17.75,12.54,6,24.06,13.6,32,23.22,1.09,1.34,2.12,2.73,3.07,4.17A62,62,0,0,1,944,1217.8a122.77,122.77,0,0,1,.44,31c-3.06,30.59-15.77,62.36-18.75,98.86a131.51,131.51,0,0,0,1.59,34.14c.92,5.09,7.89,7,8.77,5.57,8.67-14,52.9-20.92,86.42-32.86a110.23,110.23,0,0,0,11.48-4.85c10.67-5.23,19.64-11.86,24.42-19.15,9.11-13.92,3.54-25.25,1.55-37.84-.44-2.77-1-5.61-1.54-8.49-2.1-10.94-5.57-22.19-12.19-31.73a138.25,138.25,0,0,0-17.73-20.24c-3.46-3.36-7.19-6.87-11.11-10.71-11.69-11.46-26.67-25.74-46.11-45.66-8.58-27-30.85-55.24-54-81.91-21.23-24.52-45-51.23-52.23-81.74-6.27-26.54-1.2-56.24,17.63-66.63,21.89-12.08,36.78-1.4,48.45,4,10.75,5,25.63,9.43,50.42-.83,10.43-4.31,20.55-12.51,29.5-23.75,2.89-3.62-.93-8.4-3.6-8-5.29.78-11.77-1.47-18.19-5.13a73.44,73.44,0,0,1-11.73-8.57c-10.7-9.39-19.2-22-25.83-36.24-13.78-29.66-21.52-64-41.89-87.85-8.79-10.31-19.33-18.53-29.73-21.82-9-2.84-16.58-2.26-21.65.16C846.77,763,848.09,773.2,854.28,780c8.37,9.12,22.82,15.19,27.23,25.54,4.18,9.83.56,23.62-21.45,31.41-17.54,6.21-43.69,5.79-70.48.6-29.44-5.71-59.3-18.73-86.69-36.93-29-19.14-54.14-43.3-75.32-68.63-23.19-27.72-38.71-58.11-63.12-84.53-22.63-24.51-54.4-44-91.09-46.62a262.7,262.7,0,0,0-35.71-.15,335.61,335.61,0,0,0-71.58,13.08,273.15,273.15,0,0,0-44.51,17.41c-14.17,7-26.91,15.23-39.66,23.52-3,2-6,4-9.1,5.93-23,14.78-47.92,29.88-81.13,35.22-16.55,2.65-34.4,2.8-51.07-1.88A81.8,81.8,0,0,1,99,666.08c-1.21-1.52-2.32-3.06-3.4-4.61C86.51,648.34,82.06,634.13,78.71,620a527.19,527.19,0,0,1-9.55-53.8c-2.3-17.82-3.42-36.26-4.81-55.36-.13-1.76-.27-3.52-.42-5.3-1.4-15.58-4.13-31.57-11-46.39-6.21-13.33-15.43-25.76-26.45-33.21-12.43-8.39-24-10.4-33.24-10.15-1.94.06-3.79.22-5.58.44-7.77,1-14.23,3.11-20.48,5.1-4.52,1.43-8.76,3.2-13,4.67C-49,427.08-59,431-62.26,438.65Z" transform="translate(138.46 35.7)"/>
    </g>
  </g>
  <g id="Layer_4" data-name="Layer 4">
    <rect class="cls-7" x="209.47" y="280.55" width="63.46" height="393.15"/>
    <rect class="cls-7" x="272.93" y="280.55" width="364.88" height="49.14"/>
    <rect class="cls-7" x="574.36" y="329.69" width="63.46" height="344.01"/>
    <rect class="cls-7" x="272.93" y="616.37" width="301.43" height="57.33"/>
    <rect class="cls-7" x="574.36" y="616.37" width="63.46" height="393.15"/>
    <rect class="cls-7" x="637.82" y="616.37" width="364.88" height="49.14"/>
    <rect class="cls-7" x="939.24" y="665.51" width="63.46" height="344.01"/>
    <rect class="cls-7" x="637.82" y="952.18" width="301.43" height="57.33"/>
    <rect class="cls-7" x="939.24" y="960.37" width="63.46" height="393.15"/>
    <rect class="cls-7" x="1002.7" y="960.37" width="364.88" height="49.14"/>
    <rect class="cls-7" x="1304.13" y="1009.52" width="63.46" height="344.01"/>
    <rect class="cls-7" x="1002.7" y="1296.19" width="301.43" height="57.33"/>
    <rect class="cls-7" x="1169.28" y="477.12" width="87.26" height="483.25"/>
    <rect class="cls-7" x="637.82" y="378.84" width="523.53" height="90.1"/>
    <rect class="cls-7" x="320.53" y="665.51" width="87.26" height="499.63"/>
    <rect class="cls-7" x="415.71" y="1173.33" width="523.53" height="90.1"/>
    <rect class="cls-7" x="328.46" y="378.84" width="55.53" height="188.39"/>
    <rect class="cls-7" x="463.31" y="378.84" width="55.53" height="188.39"/>
    <rect class="cls-7" x="376.05" y="460.74" width="87.26" height="16.38"/>
    <rect class="cls-7" x="685.41" y="771.99" width="55.53" height="131.05"/>
    <rect class="cls-7" x="836.12" y="771.99" width="55.53" height="131.05"/>
    <rect class="cls-7" x="717.14" y="747.42" width="55.53" height="16.38"/>
    <rect class="cls-7" x="804.39" y="747.42" width="55.53" height="16.38"/>
    <rect class="cls-7" x="748.87" y="714.65" width="79.32" height="24.57"/>
    <rect class="cls-7" x="733" y="829.32" width="103.12" height="16.38"/>
    <rect class="cls-7" x="1050.3" y="1066.85" width="55.53" height="49.14"/>
    <rect class="cls-7" x="1050.3" y="1206.1" width="55.53" height="49.14"/>
    <rect class="cls-7" x="1201.01" y="1206.1" width="55.53" height="49.14"/>
    <rect class="cls-7" x="1082.02" y="1173.33" width="55.53" height="24.57"/>
    <rect class="cls-7" x="1169.28" y="1173.33" width="55.53" height="24.57"/>
    <rect class="cls-7" x="1082.02" y="1124.19" width="55.53" height="16.38"/>
    <rect class="cls-7" x="1169.28" y="1124.19" width="55.53" height="16.38"/>
    <rect class="cls-7" x="1113.75" y="1148.76" width="79.32" height="16.38"/>
    <rect class="cls-7" x="1201.01" y="1066.85" width="55.53" height="49.14"/>
    <rect class="cls-7" x="717.14" y="747.42" width="23.8" height="40.95"/>
    <rect class="cls-7" x="836.12" y="747.42" width="23.8" height="32.76"/>
    <rect class="cls-7" x="748.87" y="722.84" width="23.8" height="32.76"/>
    <rect class="cls-7" x="804.39" y="722.84" width="23.8" height="32.76"/>
    <rect class="cls-7" x="1082.02" y="1099.62" width="23.8" height="32.76"/>
    <rect class="cls-7" x="1201.01" y="1099.62" width="23.8" height="40.95"/>
    <rect class="cls-7" x="1169.28" y="1132.38" width="23.8" height="65.53"/>
    <rect class="cls-7" x="1113.75" y="1124.19" width="23.8" height="73.72"/>
    <rect class="cls-7" x="1082.02" y="1173.33" width="23.8" height="57.33"/>
    <rect class="cls-7" x="1201.01" y="1181.52" width="23.8" height="49.14"/>
    <text class="cls-8" transform="translate(320.53 1353.53) scale(0.84 1)">PENN STATE ‘22</text>
    <g class="cls-9">
      <text class="cls-8" transform="matrix(0, 0.84, -1, 0, 1292.46, 378.84)">MAY</text>
      <text class="cls-8" transform="matrix(0, 0.84, -1, 0, 1292.46, 605.64)"> </text>
      <text class="cls-8" transform="matrix(0, 0.84, -1, 0, 1292.46, 630.81)">9-10</text>
    </g>
  </g>
</svg>
